<mxfile host="app.diagrams.net" modified="2024-02-27T19:37:44.051Z" agent="Mozilla/5.0 (Windows NT 10.0; Win64; x64) AppleWebKit/537.36 (KHTML, like Gecko) Chrome/122.0.0.0 Safari/537.36" etag="RLM5Pyww4zjgcalJryx6" version="23.1.7" type="github">
  <diagram name="Página-1" id="vyMW6Ucw1GFwH9I91SXo">
    <mxGraphModel dx="1381" dy="687" grid="1" gridSize="10" guides="1" tooltips="1" connect="1" arrows="1" fold="1" page="1" pageScale="1" pageWidth="827" pageHeight="1169" math="0" shadow="0">
      <root>
        <mxCell id="0" />
        <mxCell id="1" parent="0" />
        <mxCell id="mfMyMUBi-GIv-KooAVsN-5" value="Interagir" style="ellipse;whiteSpace=wrap;html=1;" vertex="1" parent="1">
          <mxGeometry x="310" y="30" width="120" height="80" as="geometry" />
        </mxCell>
        <mxCell id="mfMyMUBi-GIv-KooAVsN-6" value="Cantar parabéns" style="ellipse;whiteSpace=wrap;html=1;" vertex="1" parent="1">
          <mxGeometry x="294" y="370" width="120" height="80" as="geometry" />
        </mxCell>
        <mxCell id="mfMyMUBi-GIv-KooAVsN-9" value="Presentear" style="ellipse;whiteSpace=wrap;html=1;" vertex="1" parent="1">
          <mxGeometry x="65" y="560" width="120" height="80" as="geometry" />
        </mxCell>
        <mxCell id="mfMyMUBi-GIv-KooAVsN-19" value="Actor" style="shape=umlActor;verticalLabelPosition=bottom;verticalAlign=top;html=1;outlineConnect=0;" vertex="1" parent="1">
          <mxGeometry x="65" y="180" width="80" height="150" as="geometry" />
        </mxCell>
        <mxCell id="mfMyMUBi-GIv-KooAVsN-22" value="Convidados&lt;div&gt;&lt;br/&gt;&lt;/div&gt;" style="text;html=1;align=center;verticalAlign=middle;resizable=0;points=[];autosize=1;strokeColor=none;fillColor=none;" vertex="1" parent="1">
          <mxGeometry x="55" y="350" width="90" height="40" as="geometry" />
        </mxCell>
        <mxCell id="mfMyMUBi-GIv-KooAVsN-23" value="Actor" style="shape=umlActor;verticalLabelPosition=bottom;verticalAlign=top;html=1;outlineConnect=0;" vertex="1" parent="1">
          <mxGeometry x="660" y="250" width="80" height="150" as="geometry" />
        </mxCell>
        <mxCell id="mfMyMUBi-GIv-KooAVsN-25" value="Aniversariante&amp;nbsp;" style="text;html=1;align=center;verticalAlign=middle;resizable=0;points=[];autosize=1;strokeColor=none;fillColor=none;" vertex="1" parent="1">
          <mxGeometry x="650" y="420" width="100" height="30" as="geometry" />
        </mxCell>
        <mxCell id="mfMyMUBi-GIv-KooAVsN-26" value="Festejar" style="ellipse;whiteSpace=wrap;html=1;" vertex="1" parent="1">
          <mxGeometry x="354" y="215" width="120" height="80" as="geometry" />
        </mxCell>
        <mxCell id="mfMyMUBi-GIv-KooAVsN-31" value="Use" style="endArrow=open;endSize=12;dashed=1;html=1;rounded=0;entryX=0.026;entryY=0.381;entryDx=0;entryDy=0;entryPerimeter=0;" edge="1" parent="1" source="mfMyMUBi-GIv-KooAVsN-19" target="mfMyMUBi-GIv-KooAVsN-26">
          <mxGeometry width="160" relative="1" as="geometry">
            <mxPoint x="160" y="200" as="sourcePoint" />
            <mxPoint x="390" y="440" as="targetPoint" />
          </mxGeometry>
        </mxCell>
        <mxCell id="mfMyMUBi-GIv-KooAVsN-33" value="Use" style="endArrow=open;endSize=12;dashed=1;html=1;rounded=0;entryX=0;entryY=0.5;entryDx=0;entryDy=0;" edge="1" parent="1" source="mfMyMUBi-GIv-KooAVsN-19" target="mfMyMUBi-GIv-KooAVsN-5">
          <mxGeometry width="160" relative="1" as="geometry">
            <mxPoint x="170" y="150" as="sourcePoint" />
            <mxPoint x="363" y="220" as="targetPoint" />
          </mxGeometry>
        </mxCell>
        <mxCell id="mfMyMUBi-GIv-KooAVsN-34" value="Use" style="endArrow=open;endSize=12;dashed=1;html=1;rounded=0;entryX=0.006;entryY=0.569;entryDx=0;entryDy=0;entryPerimeter=0;" edge="1" parent="1" source="mfMyMUBi-GIv-KooAVsN-19" target="mfMyMUBi-GIv-KooAVsN-6">
          <mxGeometry width="160" relative="1" as="geometry">
            <mxPoint x="180" y="70" as="sourcePoint" />
            <mxPoint x="318" y="130" as="targetPoint" />
          </mxGeometry>
        </mxCell>
        <mxCell id="mfMyMUBi-GIv-KooAVsN-35" value="Use" style="endArrow=open;endSize=12;dashed=1;html=1;rounded=0;entryX=0;entryY=0.5;entryDx=0;entryDy=0;" edge="1" parent="1" source="mfMyMUBi-GIv-KooAVsN-19" target="mfMyMUBi-GIv-KooAVsN-9">
          <mxGeometry width="160" relative="1" as="geometry">
            <mxPoint x="190" y="110" as="sourcePoint" />
            <mxPoint x="363" y="170" as="targetPoint" />
          </mxGeometry>
        </mxCell>
        <mxCell id="mfMyMUBi-GIv-KooAVsN-38" value="Use" style="endArrow=open;endSize=12;dashed=1;html=1;rounded=0;entryX=1.033;entryY=0.631;entryDx=0;entryDy=0;entryPerimeter=0;" edge="1" parent="1" source="mfMyMUBi-GIv-KooAVsN-23" target="mfMyMUBi-GIv-KooAVsN-5">
          <mxGeometry width="160" relative="1" as="geometry">
            <mxPoint x="210" y="250" as="sourcePoint" />
            <mxPoint x="373" y="330" as="targetPoint" />
          </mxGeometry>
        </mxCell>
        <mxCell id="mfMyMUBi-GIv-KooAVsN-39" value="Use" style="endArrow=open;endSize=12;dashed=1;html=1;rounded=0;entryX=1;entryY=0.5;entryDx=0;entryDy=0;" edge="1" parent="1" source="mfMyMUBi-GIv-KooAVsN-23" target="mfMyMUBi-GIv-KooAVsN-26">
          <mxGeometry width="160" relative="1" as="geometry">
            <mxPoint x="220" y="260" as="sourcePoint" />
            <mxPoint x="383" y="340" as="targetPoint" />
          </mxGeometry>
        </mxCell>
        <mxCell id="mfMyMUBi-GIv-KooAVsN-40" value="Actor" style="shape=umlActor;verticalLabelPosition=bottom;verticalAlign=top;html=1;outlineConnect=0;" vertex="1" parent="1">
          <mxGeometry x="310" y="650" width="80" height="150" as="geometry" />
        </mxCell>
        <mxCell id="mfMyMUBi-GIv-KooAVsN-41" value="Parentes" style="text;html=1;align=center;verticalAlign=middle;resizable=0;points=[];autosize=1;strokeColor=none;fillColor=none;" vertex="1" parent="1">
          <mxGeometry x="665" y="660" width="70" height="30" as="geometry" />
        </mxCell>
        <mxCell id="mfMyMUBi-GIv-KooAVsN-42" value="Abrir Presentes" style="ellipse;whiteSpace=wrap;html=1;" vertex="1" parent="1">
          <mxGeometry x="640" y="20" width="120" height="80" as="geometry" />
        </mxCell>
        <mxCell id="mfMyMUBi-GIv-KooAVsN-44" value="Use" style="endArrow=open;endSize=12;dashed=1;html=1;rounded=0;" edge="1" parent="1" source="mfMyMUBi-GIv-KooAVsN-23" target="mfMyMUBi-GIv-KooAVsN-42">
          <mxGeometry width="160" relative="1" as="geometry">
            <mxPoint x="776" y="257" as="sourcePoint" />
            <mxPoint x="580" y="70" as="targetPoint" />
          </mxGeometry>
        </mxCell>
        <mxCell id="mfMyMUBi-GIv-KooAVsN-45" value="Use" style="endArrow=open;endSize=12;dashed=1;html=1;rounded=0;entryX=0.5;entryY=1;entryDx=0;entryDy=0;" edge="1" parent="1" source="mfMyMUBi-GIv-KooAVsN-40" target="mfMyMUBi-GIv-KooAVsN-6">
          <mxGeometry width="160" relative="1" as="geometry">
            <mxPoint x="680" y="597" as="sourcePoint" />
            <mxPoint x="484" y="410" as="targetPoint" />
          </mxGeometry>
        </mxCell>
        <mxCell id="mfMyMUBi-GIv-KooAVsN-46" value="Use" style="endArrow=open;endSize=12;dashed=1;html=1;rounded=0;" edge="1" parent="1" source="mfMyMUBi-GIv-KooAVsN-40" target="mfMyMUBi-GIv-KooAVsN-9">
          <mxGeometry width="160" relative="1" as="geometry">
            <mxPoint x="596" y="697" as="sourcePoint" />
            <mxPoint x="400" y="510" as="targetPoint" />
          </mxGeometry>
        </mxCell>
        <mxCell id="mfMyMUBi-GIv-KooAVsN-47" value="Organizar festa" style="ellipse;whiteSpace=wrap;html=1;" vertex="1" parent="1">
          <mxGeometry x="600" y="670" width="120" height="80" as="geometry" />
        </mxCell>
        <mxCell id="mfMyMUBi-GIv-KooAVsN-48" value="Use" style="endArrow=open;endSize=12;dashed=1;html=1;rounded=0;entryX=1.019;entryY=0.433;entryDx=0;entryDy=0;entryPerimeter=0;" edge="1" parent="1" source="mfMyMUBi-GIv-KooAVsN-23" target="mfMyMUBi-GIv-KooAVsN-47">
          <mxGeometry width="160" relative="1" as="geometry">
            <mxPoint x="660" y="547" as="sourcePoint" />
            <mxPoint x="464" y="360" as="targetPoint" />
          </mxGeometry>
        </mxCell>
        <mxCell id="mfMyMUBi-GIv-KooAVsN-49" value="Use" style="endArrow=open;endSize=12;dashed=1;html=1;rounded=0;entryX=0.5;entryY=1;entryDx=0;entryDy=0;" edge="1" parent="1" source="mfMyMUBi-GIv-KooAVsN-40" target="mfMyMUBi-GIv-KooAVsN-47">
          <mxGeometry width="160" relative="1" as="geometry">
            <mxPoint x="576" y="550" as="sourcePoint" />
            <mxPoint x="380" y="363" as="targetPoint" />
          </mxGeometry>
        </mxCell>
      </root>
    </mxGraphModel>
  </diagram>
</mxfile>
